<svg id="Capa_1" enable-background="new 0 0 510 510" height="512" viewBox="0 0 510 510" width="512" xmlns="http://www.w3.org/2000/svg"><g><path d="m240 210h30v120h-30z"/><path d="m180 240h30v60h-30z"/><path d="m300 240h30v60h-30z"/><path d="m255 0c-124.351 0-225 100.632-225 225v195c0 24.814 20.188 45 45 45h15v-90h-15c-5.259 0-10.305.915-15 2.58v-137.58h60v-15c0-74.439 60.561-135 135-135s135 60.561 135 135v15h60v137.58c-4.695-1.665-9.742-2.58-15-2.58h-15v90h15c24.814 0 45-20.186 45-45 0-6.799 0-188.204 0-195 0-124.35-100.633-225-225-225z"/><path d="m360 330c-16.568 0-30 13.432-30 30v120c0 16.568 13.432 30 30 30s30-13.432 30-30v-120c0-16.568-13.432-30-30-30z"/><path d="m150 330c-16.568 0-30 13.432-30 30v120c0 16.568 13.432 30 30 30s30-13.432 30-30v-120c0-16.568-13.432-30-30-30z"/></g></svg>