<svg xmlns="http://www.w3.org/2000/svg" width="21.46" height="17.805" viewBox="0 0 21.46 17.805">
  <path id="home" d="M21.4,8.376,19.443,6.754h0l-7.8-6.47a1.353,1.353,0,0,0-1.662,0L2.172,6.75h0L.21,8.376a.368.368,0,0,0,.012.58.581.581,0,0,0,.7.01l1.1-.914v8.779A1.089,1.089,0,0,0,3.2,17.8H7.783a1.089,1.089,0,0,0,1.175-.974V11.267a.156.156,0,0,1,.168-.139h3.357a.156.156,0,0,1,.168.139v5.564a1.089,1.089,0,0,0,1.175.974h4.589a1.089,1.089,0,0,0,1.175-.974V8.056l1.1.91a.581.581,0,0,0,.7-.01A.368.368,0,0,0,21.4,8.376Zm-2.817,8.455a.156.156,0,0,1-.168.139H13.826a.156.156,0,0,1-.168-.139V11.267a1.089,1.089,0,0,0-1.175-.974H9.126a1.089,1.089,0,0,0-1.175.974v5.564a.156.156,0,0,1-.168.139H3.2a.156.156,0,0,1-.168-.139V7.219L10.686.875a.193.193,0,0,1,.237,0l7.659,6.347Z" transform="translate(-0.075 0)" fill="#012227"/>
</svg>
