<svg xmlns="http://www.w3.org/2000/svg" width="18.692" height="17.175" viewBox="0 0 18.692 17.175">
  <path id="like" d="M16.969,7.578A5.772,5.772,0,0,0,12.182,6.1,3.97,3.97,0,0,0,9.354,7.874,3.885,3.885,0,0,0,6.589,6.065,5.908,5.908,0,0,0,1.717,7.576,5.691,5.691,0,0,0,0,11.63a5.906,5.906,0,0,0,1.714,4.234l6.9,7a1.012,1.012,0,0,0,1.452,0l6.906-7a5.905,5.905,0,0,0,1.719-4.233A5.691,5.691,0,0,0,16.969,7.578Zm-.616,7.657-6.9,7a.145.145,0,0,1-.213,0l-6.9-7a5.018,5.018,0,0,1-1.46-3.6A4.8,4.8,0,0,1,2.325,8.217a5,5,0,0,1,3.4-1.332,4.377,4.377,0,0,1,.721.059A2.968,2.968,0,0,1,8.7,8.507a.738.738,0,0,0,.644.4h0a.717.717,0,0,0,.634-.382h0A3.073,3.073,0,0,1,12.3,6.98,4.947,4.947,0,0,1,16.35,8.219a4.8,4.8,0,0,1,1.463,3.42,5.018,5.018,0,0,1-1.46,3.6Z" transform="translate(0.003 -5.996)" fill="#b3f1ec"/>
</svg>
