<svg xmlns="http://www.w3.org/2000/svg" width="45.116" height="45.499" viewBox="0 0 45.116 45.499">
  <g id="Grupo_49" data-name="Grupo 49" transform="translate(-159 -409.52)">
    <g id="Polígono_1" data-name="Polígono 1" transform="translate(198.5 415.5) rotate(90)" fill="none">
      <path d="M13.123,5.322a4,4,0,0,1,6.755,0L29.1,19.857A4,4,0,0,1,25.724,26H7.276A4,4,0,0,1,3.9,19.857Z" stroke="none"/>
      <path d="M 16.5 7.46513557434082 L 7.275949478149414 21.9999942779541 L 25.72405052185059 22.00000381469727 L 16.5000057220459 7.46513557434082 C 16.50000381469727 7.46513557434082 16.50000190734863 7.46513557434082 16.5 7.46513557434082 M 16.50000381469727 3.465131759643555 C 17.7958984375 3.465131759643555 19.09178924560547 4.084030151367188 19.8773193359375 5.321834564208984 L 29.10136985778809 19.85670471191406 C 30.79142951965332 22.51981544494629 28.87817001342773 25.9999942779541 25.72405052185059 25.9999942779541 L 7.275949478149414 25.9999942779541 C 4.121829986572266 25.9999942779541 2.208580017089844 22.51981544494629 3.898630142211914 19.85670471191406 L 13.1226806640625 5.321834564208984 C 13.90821075439453 4.084033966064453 15.20410919189453 3.465131759643555 16.50000381469727 3.465131759643555 Z" stroke="none" fill="#b3f1ec"/>
    </g>
    <g id="Grupo_35" data-name="Grupo 35" transform="translate(452.116 913.54) rotate(180)">
      <path id="Trazado_20" data-name="Trazado 20" d="M21.558,0A21.75,21.75,0,1,0,43.116,21.749,21.678,21.678,0,0,0,21.558,0Zm0,41.46A19.711,19.711,0,1,1,41.1,21.749,19.624,19.624,0,0,1,21.558,41.46Z" transform="translate(249 459.52)" fill="#b3f1ec" stroke="#b3f1ec" stroke-width="2"/>
    </g>
  </g>
</svg>
