<svg xmlns="http://www.w3.org/2000/svg" width="45.116" height="45.499" viewBox="0 0 45.116 45.499">
  <g id="Grupo_50" data-name="Grupo 50" transform="translate(-255 -409.52)">
    <path id="Trazado_20" data-name="Trazado 20" d="M21.558,0A21.75,21.75,0,1,0,43.116,21.749,21.678,21.678,0,0,0,21.558,0Zm0,41.46A19.711,19.711,0,1,1,41.1,21.749,19.624,19.624,0,0,1,21.558,41.46Z" transform="translate(299.116 454.019) rotate(180)" fill="#b3f1ec" stroke="#b3f1ec" stroke-width="2"/>
    <path id="Trazado_21" data-name="Trazado 21" d="M57.65,35.281a1.927,1.927,0,0,0-2,0L43.416,43.537a.755.755,0,0,0,0,1.346L55.654,53.14a1.933,1.933,0,0,0,1.961-.023.751.751,0,0,0,.035-1.323L46.409,44.21,57.65,36.628A.755.755,0,0,0,57.65,35.281Z" transform="translate(329.695 476.416) rotate(180)" fill="#b3f1ec" stroke="#b3f1ec" stroke-width="1"/>
  </g>
</svg>
