<svg xmlns="http://www.w3.org/2000/svg" width="21" height="24" viewBox="0 0 21 24">
  <g id="Polígono_1" data-name="Polígono 1" transform="translate(21) rotate(90)" fill="#fff">
    <path d="M 18.83045959472656 20.49999809265137 L 5.169538974761963 20.49999809265137 C 4.268059253692627 20.49999809265137 3.459738969802856 20.03450775146484 3.007259130477905 19.25481796264648 C 2.554789066314697 18.47512817382813 2.551679134368896 17.5423583984375 2.998929023742676 16.75965690612793 L 9.829388618469238 4.806347846984863 C 10.28010940551758 4.017597675323486 11.09154891967773 3.546697616577148 11.99999904632568 3.546697616577148 C 12.90844917297363 3.546697616577148 13.71988868713379 4.017597675323486 14.17060947418213 4.806347846984863 L 21.00106811523438 16.75965690612793 C 21.44831848144531 17.5423583984375 21.44520950317383 18.47512817382813 20.99273872375488 19.25481796264648 C 20.54025840759277 20.03450775146484 19.7319393157959 20.49999809265137 18.83045959472656 20.49999809265137 Z" stroke="none"/>
    <path d="M 11.99999904632568 4.046697616577148 C 11.27323913574219 4.046697616577148 10.62408924102783 4.423418045043945 10.26350879669189 5.054418563842773 L 3.433048248291016 17.00772857666016 C 3.075248718261719 17.63388824462891 3.077739715576172 18.38009643554688 3.439718246459961 19.00385665893555 C 3.801698684692383 19.62760734558105 4.448358535766602 19.99999809265137 5.169538497924805 19.99999809265137 L 18.83045959472656 19.99999809265137 C 19.55163955688477 19.99999809265137 20.19829940795898 19.62760734558105 20.56027984619141 19.00385665893555 C 20.9222583770752 18.38009643554688 20.92474937438965 17.63388824462891 20.56694984436035 17.00772857666016 L 13.73648929595947 5.054418563842773 C 13.37590885162354 4.423418045043945 12.72675895690918 4.046697616577148 11.99999904632568 4.046697616577148 M 11.99999904632568 3.046697616577148 C 13.01444435119629 3.046697616577148 14.02888870239258 3.550558090209961 14.60472869873047 4.558277130126953 L 21.43518829345703 16.51158714294434 C 22.57802963256836 18.51155853271484 21.1339282989502 20.99999809265137 18.83045959472656 20.99999809265137 L 5.169538497924805 20.99999809265137 C 2.866069793701172 20.99999809265137 1.421968460083008 18.51155853271484 2.564809799194336 16.51158714294434 L 9.395269393920898 4.558277130126953 C 9.971109390258789 3.550558090209961 10.98555374145508 3.046697616577148 11.99999904632568 3.046697616577148 Z" stroke="none" fill="#012227"/>
  </g>
</svg>
