<svg xmlns="http://www.w3.org/2000/svg" width="19.501" height="19.246" viewBox="0 0 19.501 19.246">
  <path id="search" d="M19.352,18.464l-7.377-7.213A6.694,6.694,0,0,0,13.1,3.989,6.9,6.9,0,0,0,2.005,1.98h0A6.7,6.7,0,0,0,.52,9.35a6.9,6.9,0,0,0,10.8,2.532L18.71,19.1a.461.461,0,0,0,.448.127.454.454,0,0,0,.328-.327.447.447,0,0,0-.133-.441Zm-16.7-7.557a5.807,5.807,0,0,1,0-8.288h0a5.994,5.994,0,0,1,8.4,0,5.807,5.807,0,0,1,0,8.288,5.994,5.994,0,0,1-8.4,0Z" transform="translate(0.002 0)" fill="#012227"/>
</svg>
